<svg width="24" height="24" viewBox="27 38 108 84" fill="none" xmlns="http://www.w3.org/2000/svg">
<path d="M48.7491 103.5C53.3089 103.5 56.9981 99.8078 56.9981 95.2499C56.9981 90.692 53.3089 87 48.7491 87C44.1892 87 40.5 90.692 40.5 95.2499C40.5 99.8078 44.1892 103.5 48.7491 103.5Z" fill="#5E616E"/>
<path fill-rule="evenodd" clip-rule="evenodd" d="M133.5 56C133.5 47.1634 126.337 40 117.5 40L43.5 40C34.6634 40 27.5 47.1634 27.5 56L27.5 104C27.5 112.837 34.6634 120 43.5 120H117.5C126.337 120 133.5 112.837 133.5 104V56ZM128.5 72.9072V59.8326H32.5L32.5 72.9072H128.5ZM128.5 77.9072H32.5L32.5 104C32.5 110.075 37.4249 115 43.5 115H117.5C123.575 115 128.5 110.075 128.5 104V77.9072ZM117.5 45C123.181 45 127.856 49.3063 128.439 54.8326H32.5612C33.1441 49.3063 37.8192 45 43.5 45L117.5 45Z" fill="#5E616E"/>
</svg>
