<svg width="20" height="20" viewBox="0 0 20 20" fill="none" xmlns="http://www.w3.org/2000/svg">
<g clip-path="url(#clip0_7960_5861)">
<path d="M9.99997 2.70834C6.55082 2.70834 3.63901 5.009 2.71543 8.15944C3.18502 8.45188 3.49756 8.97281 3.49756 9.56674V12.8407C3.49756 13.1731 3.39967 13.4827 3.23114 13.7421C4.10384 15.3215 5.61081 17.685 7.93261 17.8837C8.11248 17.6167 8.41901 17.4426 8.76496 17.4467L9.75372 17.4584C10.2998 17.4648 10.7373 17.9127 10.7308 18.4588C10.7244 19.0049 10.2765 19.4424 9.73038 19.4359L8.74161 19.4242C8.35561 19.4197 8.02389 19.1946 7.86484 18.8701C5.28542 18.6513 3.57448 16.0056 2.56227 14.3325C2.34419 14.4382 2.09946 14.4974 1.84088 14.4974H1.65668C0.741721 14.4974 0 13.7557 0 12.8407V9.56674C0 8.71017 0.650073 8.00544 1.48378 7.91898C2.5228 4.19245 5.94209 1.45834 9.99997 1.45834C14.0578 1.45834 17.4771 4.19245 18.5162 7.91897C19.3499 8.00539 20 8.71015 20 9.56674V12.8407C20 13.7557 19.2583 14.4974 18.3433 14.4974H18.1591C17.2442 14.4974 16.5025 13.7557 16.5025 12.8407V9.56674C16.5025 8.97284 16.815 8.45193 17.2845 8.15948C16.361 5.00902 13.4491 2.70834 9.99997 2.70834Z" fill="#5F616D"/>
<path d="M8.125 10.5C8.125 10.9602 7.7519 11.3333 7.29167 11.3333C6.83143 11.3333 6.45833 10.9602 6.45833 10.5C6.45833 10.0398 6.83143 9.66667 7.29167 9.66667C7.7519 9.66667 8.125 10.0398 8.125 10.5Z" fill="#5F616D"/>
<path d="M10.0001 11.3333C10.4603 11.3333 10.8334 10.9602 10.8334 10.5C10.8334 10.0398 10.4603 9.66667 10.0001 9.66667C9.53981 9.66667 9.16672 10.0398 9.16672 10.5C9.16672 10.9602 9.53981 11.3333 10.0001 11.3333Z" fill="#5F616D"/>
<path d="M13.525 10.5C13.525 10.9602 13.1519 11.3333 12.6917 11.3333C12.2314 11.3333 11.8583 10.9602 11.8583 10.5C11.8583 10.0398 12.2314 9.66667 12.6917 9.66667C13.1519 9.66667 13.525 10.0398 13.525 10.5Z" fill="#5F616D"/>
<path fill-rule="evenodd" clip-rule="evenodd" d="M10 4.79168C6.8715 4.79168 4.33533 7.32785 4.33533 10.4564C4.33533 13.5849 6.8715 16.1211 10 16.1211H13.1864C14.5551 16.1211 15.6647 15.0115 15.6647 13.6427V10.4564C15.6647 7.32785 13.1286 4.79168 10 4.79168ZM14.4147 13.6427V10.4564C14.4147 8.0182 12.4382 6.04168 10 6.04168C7.56186 6.04168 5.58533 8.0182 5.58533 10.4564C5.58533 12.8945 7.56186 14.8711 10 14.8711H13.1864C13.8648 14.8711 14.4147 14.3211 14.4147 13.6427Z" fill="#5F616D"/>
</g>
<defs>
<clipPath id="clip0_7960_5861">
<rect width="20" height="20" fill="white"/>
</clipPath>
</defs>
</svg>
